<?xml version="1.0" standalone="no"?>
<!DOCTYPE svg PUBLIC "-//W3C//DTD SVG 20010904//EN"
 "http://www.w3.org/TR/2001/REC-SVG-20010904/DTD/svg10.dtd">
<svg version="1.0" xmlns="http://www.w3.org/2000/svg"
 width="1176.000000pt" height="1176.000000pt" viewBox="0 0 1176.000000 1176.000000"
 preserveAspectRatio="xMidYMid meet">
<metadata>
Created by potrace 1.14, written by Peter Selinger 2001-2017
</metadata>
<g transform="translate(0.000000,1176.000000) scale(0.100000,-0.100000)"
fill="#000000" stroke="none">
<path d="M7199 10695 c-23 -12 -31 -27 -45 -80 -1 -5 -14 -56 -27 -112 -14
-57 -28 -106 -30 -110 -3 -5 -8 -26 -11 -48 -4 -22 -11 -53 -16 -70 -6 -16
-31 -105 -55 -198 -25 -92 -49 -177 -54 -190 -12 -33 -2 -87 15 -80 10 4 14
-3 14 -25 0 -16 7 -35 15 -42 31 -26 -6 -122 -52 -135 -26 -6 -31 -35 -7 -35
8 0 24 5 35 10 33 18 59 -4 59 -50 0 -36 3 -40 25 -40 16 0 25 -6 25 -15 0 -9
-9 -15 -24 -15 -23 0 -24 -2 -15 -32 13 -47 12 -54 -16 -66 -30 -14 -31 -22
-5 -52 11 -13 20 -29 20 -37 0 -29 21 -12 67 53 12 17 23 37 25 45 2 8 6 16
10 19 11 9 17 56 8 70 -8 13 4 60 19 70 28 20 73 120 90 202 19 93 49 193 78
256 27 62 73 216 94 317 11 55 22 109 25 120 2 11 5 50 6 87 1 57 -2 72 -26
108 -15 22 -35 44 -44 47 -9 4 -19 9 -22 12 -26 31 -136 40 -181 16z"/>
<path d="M4626 10579 c-78 -38 -116 -130 -95 -229 4 -19 10 -46 12 -60 3 -14
14 -65 26 -115 11 -49 22 -103 25 -120 13 -83 52 -148 83 -138 6 2 18 -3 27
-12 11 -12 25 -15 46 -10 25 6 30 4 30 -13 0 -19 15 -37 67 -80 15 -12 19 -23
13 -32 -7 -11 -19 -3 -56 33 -25 26 -48 47 -50 47 -2 0 -4 -22 -4 -50 l0 -49
-29 16 c-27 16 -30 16 -55 -1 -22 -14 -25 -20 -16 -31 6 -8 18 -11 26 -8 22 8
16 -14 -8 -31 -30 -21 -31 -44 -2 -62 26 -18 59 -20 117 -9 25 5 37 4 37 -4 0
-6 9 -11 19 -11 11 0 22 -4 25 -9 3 -4 16 -6 29 -4 l23 5 -1 346 c-1 191 -5
358 -8 372 -4 14 -10 41 -13 60 -10 50 -50 134 -79 166 -14 15 -25 23 -25 18
0 -5 -6 -1 -13 8 -20 25 -105 30 -151 7z"/>
<path d="M5775 10014 c-27 -9 -53 -21 -57 -28 -11 -17 -7 -438 4 -459 5 -10
18 -27 29 -38 10 -10 19 -23 19 -29 0 -5 13 -7 30 -4 27 6 31 3 45 -30 17 -41
36 -43 45 -5 5 17 13 24 29 23 16 -1 32 12 52 39 16 22 29 46 29 54 0 7 5 13
10 13 6 0 9 3 8 8 -1 4 2 25 7 47 4 22 9 49 12 60 2 11 6 58 9 105 11 159 -49
249 -169 257 -29 1 -74 -4 -102 -13z"/>
<path d="M4634 9875 c-13 -33 26 -63 56 -45 10 6 6 15 -15 34 -33 30 -34 31
-41 11z"/>
<path d="M6904 9666 c-15 -12 -15 -14 1 -29 18 -19 30 -16 45 12 7 15 5 20
-10 24 -10 3 -27 -1 -36 -7z"/>
<path d="M7916 9561 c-4 -6 -11 -9 -16 -6 -12 7 -26 -14 -49 -73 -12 -29 -41
-94 -66 -146 -65 -136 -95 -225 -95 -282 0 -21 4 -24 20 -19 26 8 107 -69 93
-88 -16 -21 -15 -73 1 -87 33 -27 144 69 210 183 15 25 42 62 61 83 21 23 36
51 41 78 3 22 11 52 17 66 5 14 11 30 13 35 1 6 7 24 12 40 12 44 6 112 -15
147 -10 17 -36 40 -58 52 -45 23 -158 35 -169 17z"/>
<path d="M4833 9553 c-18 -7 -16 -43 1 -43 16 0 46 26 46 41 0 9 -26 11 -47 2z"/>
<path d="M6931 9541 c-18 -33 -13 -51 13 -51 32 0 53 26 39 48 -15 25 -40 26
-52 3z"/>
<path d="M2086 9498 c-64 -23 -143 -120 -132 -161 7 -29 40 -66 85 -97 38 -26
98 -85 157 -156 70 -83 158 -169 204 -199 25 -17 58 -42 75 -57 l29 -27 34 21
c31 19 38 20 71 8 20 -7 52 -26 72 -41 29 -23 35 -34 32 -53 -6 -29 -37 -43
-58 -26 -8 6 -19 9 -24 6 -13 -8 37 -106 54 -106 7 0 25 10 40 22 l27 21 19
-24 c10 -13 19 -30 19 -36 0 -13 10 -16 43 -15 24 1 54 1 111 1 68 -1 73 9 35
67 -18 27 -36 51 -39 54 -4 3 -20 25 -37 50 -17 25 -40 54 -52 64 -11 11 -21
23 -21 28 0 4 -8 16 -17 26 -10 10 -33 37 -51 59 -19 23 -41 51 -50 61 -10 11
-37 44 -62 73 -25 29 -57 67 -72 84 -14 16 -47 55 -73 85 -26 30 -56 63 -67
73 -11 9 -17 17 -14 17 3 0 -12 18 -34 40 -22 22 -38 40 -35 40 11 0 -73 69
-108 89 -41 23 -111 27 -161 9z"/>
<path d="M9622 9493 c-7 -3 -30 -30 -52 -61 -45 -67 -90 -111 -224 -222 -10
-8 -37 -35 -60 -59 -22 -24 -58 -61 -78 -83 -21 -21 -35 -38 -31 -38 3 0 -6
-9 -20 -20 -14 -11 -41 -35 -60 -53 -18 -17 -53 -48 -76 -69 -42 -35 -43 -38
-40 -87 3 -38 0 -51 -11 -54 -10 -3 -16 -20 -18 -58 -4 -58 -20 -82 -60 -87
-21 -3 -23 0 -20 25 2 20 -2 29 -14 31 -14 3 -16 -4 -14 -39 2 -24 8 -45 13
-46 5 -2 7 -17 5 -33 -3 -23 0 -30 12 -30 9 0 16 4 16 8 0 6 28 8 60 3 4 -1 4
-17 2 -36 -3 -29 -1 -35 14 -35 11 0 33 12 49 28 17 15 59 49 95 77 36 27 67
52 70 56 3 3 31 27 63 53 88 71 95 77 155 131 94 85 303 285 296 285 -1 0 21
24 49 54 109 113 115 122 110 163 -7 57 -50 139 -91 173 -29 24 -46 30 -82 29
-25 0 -51 -3 -58 -6z"/>
<path d="M3653 9420 c-119 -26 -181 -112 -146 -204 9 -22 27 -55 40 -73 12
-17 23 -36 23 -42 0 -6 3 -11 8 -11 6 0 24 -27 83 -127 10 -19 27 -33 38 -33
23 0 80 20 144 50 56 26 55 18 14 165 -33 117 -55 171 -92 222 -34 48 -65 63
-112 53z"/>
<path d="M5525 9098 c-27 -5 -97 -20 -155 -34 -58 -14 -112 -27 -120 -29 -8
-2 -44 -10 -80 -18 -36 -9 -81 -18 -100 -20 -138 -20 -230 -57 -300 -121 -19
-18 -46 -39 -60 -48 -25 -15 -130 -57 -160 -63 -154 -34 -238 -69 -298 -125
-12 -11 -25 -20 -31 -20 -5 0 -11 -4 -13 -9 -1 -4 -43 -41 -93 -80 -49 -40
-98 -78 -107 -86 -9 -7 -27 -19 -40 -26 -12 -7 -28 -17 -34 -23 -6 -6 -44 -31
-85 -54 -55 -33 -83 -57 -109 -95 -46 -68 -81 -108 -90 -102 -4 3 -17 -3 -28
-13 -116 -97 -145 -126 -188 -185 -27 -37 -54 -73 -59 -80 -6 -6 -30 -43 -55
-82 -56 -88 -70 -104 -152 -189 -41 -42 -70 -81 -74 -99 -9 -41 -50 -116 -124
-226 -59 -88 -110 -184 -110 -208 0 -12 -13 -17 -32 -14 -11 1 -26 -31 -33
-69 -8 -45 -21 -67 -44 -75 -16 -5 -19 -13 -16 -53 2 -26 9 -63 15 -82 17 -60
14 -68 -27 -72 -32 -3 -38 -7 -41 -28 -2 -14 -15 -65 -29 -114 -24 -85 -27
-142 -8 -188 4 -11 -2 -24 -19 -39 -14 -12 -23 -26 -20 -31 3 -4 1 -8 -5 -8
-5 0 -8 -14 -7 -31 1 -17 -2 -61 -7 -97 -15 -115 -12 -160 12 -185 21 -23 30
-54 12 -42 -11 6 -41 -21 -41 -38 0 -7 5 -28 10 -47 6 -19 13 -89 16 -155 7
-166 20 -245 56 -350 17 -49 31 -96 31 -102 0 -7 4 -13 9 -13 4 0 7 -3 6 -7
-1 -5 8 -39 21 -76 12 -37 25 -82 28 -100 8 -55 26 -82 51 -79 15 2 22 -2 22
-13 0 -9 -4 -14 -9 -11 -13 8 6 -69 27 -107 9 -18 26 -46 38 -62 26 -37 50
-91 58 -130 14 -65 24 -84 80 -143 28 -30 54 -62 58 -73 4 -10 12 -19 18 -19
5 0 10 -4 10 -10 0 -23 105 -223 128 -243 69 -62 111 -108 146 -162 21 -33 50
-69 64 -79 25 -19 26 -19 40 2 21 32 35 27 29 -11 -4 -31 9 -77 23 -77 4 0 21
-13 36 -28 40 -39 130 -112 138 -112 4 0 24 -13 44 -29 20 -16 62 -42 92 -59
152 -85 208 -116 245 -134 22 -12 85 -49 141 -84 89 -56 112 -65 200 -83 54
-11 159 -40 232 -65 72 -24 132 -42 132 -39 0 3 6 1 13 -4 6 -6 26 -14 42 -18
17 -4 39 -9 50 -12 128 -32 272 -41 355 -22 26 6 39 4 52 -8 20 -18 139 -23
233 -11 99 14 108 16 155 26 25 6 61 14 80 17 19 3 42 8 51 11 13 3 143 27
384 71 17 3 38 9 48 14 9 5 17 8 17 5 0 -14 198 67 270 110 26 16 49 21 88 19
29 -1 55 2 58 7 12 19 81 55 129 68 28 7 55 16 60 19 6 3 18 7 27 8 37 6 125
52 155 82 22 20 43 31 62 31 33 0 81 19 81 31 0 7 76 52 90 54 10 1 85 49 88
57 2 4 8 8 14 8 5 0 16 6 23 12 8 7 20 18 27 23 7 6 40 32 72 59 62 53 124 97
141 101 28 6 60 27 165 107 130 98 207 170 252 237 34 49 48 62 88 83 48 25
245 218 223 218 -4 0 -3 4 3 8 20 13 91 125 134 210 22 45 45 80 49 78 12 -8
51 23 51 40 0 9 38 89 84 179 92 176 118 248 121 335 2 66 10 86 36 93 14 4
19 14 19 42 0 34 22 138 37 175 3 8 7 20 9 25 2 6 15 44 30 85 33 94 42 201
22 250 -13 31 -13 40 -1 75 10 27 12 58 8 95 -3 30 -8 89 -11 130 -6 98 -21
162 -54 235 -32 71 -59 147 -96 270 -15 50 -30 95 -34 100 -5 6 -8 12 -8 15 0
16 -15 60 -21 60 -3 0 -12 14 -20 32 -8 18 -37 53 -64 80 -39 38 -53 60 -68
113 -11 36 -24 65 -28 65 -5 0 -12 11 -15 24 -13 51 -134 191 -287 331 -30 28
-96 98 -146 156 -120 139 -156 169 -323 269 -77 46 -147 91 -155 99 -59 67
-139 141 -151 141 -8 0 -14 3 -14 8 0 4 -10 12 -23 18 -59 28 -152 80 -155 87
-2 4 -9 7 -15 7 -7 0 -39 19 -72 42 -44 30 -73 43 -108 46 -36 4 -56 12 -80
36 -28 27 -40 31 -95 34 -67 3 -128 21 -170 50 -15 10 -31 18 -37 17 -5 -1
-26 -4 -45 -8 -19 -3 -70 -8 -112 -11 -65 -3 -79 -1 -97 15 -12 11 -21 30 -21
42 0 13 -12 46 -26 74 -74 150 -266 237 -509 233 -106 -2 -109 -2 -255 3 -52
2 -117 0 -145 -5z"/>
<path d="M3733 8903 c-7 -19 6 -33 31 -33 24 0 46 17 46 36 0 16 -71 13 -77
-3z"/>
<path d="M3854 8904 c3 -9 6 -20 6 -25 0 -5 7 -9 15 -9 8 0 15 4 15 9 0 21
-13 41 -27 41 -10 0 -13 -6 -9 -16z"/>
<path d="M8764 8625 c-16 -12 -17 -16 -4 -24 17 -11 40 3 40 25 0 18 -11 18
-36 -1z"/>
<path d="M2745 8569 c-12 -18 4 -57 26 -64 29 -10 31 -4 12 38 -18 38 -27 45
-38 26z"/>
<path d="M2981 8487 c-14 -17 3 -41 23 -34 9 4 16 13 16 21 0 19 -26 28 -39
13z"/>
<path d="M8796 8453 c-40 -14 -69 -21 -94 -22 -27 -2 -5 -26 23 -26 16 -1 30
-6 33 -13 2 -7 -3 -12 -11 -12 -8 0 -17 -7 -21 -15 -5 -15 4 -19 36 -16 13 2
16 -2 11 -16 -9 -25 -34 -42 -60 -43 -26 0 -35 -11 -24 -29 11 -17 96 26 134
68 15 17 34 31 42 31 8 0 15 3 15 8 0 4 12 14 26 23 l26 16 -31 32 c-33 34
-46 36 -105 14z"/>
<path d="M8610 8211 c0 -49 18 -57 55 -25 27 23 28 25 10 44 -10 11 -29 20
-42 20 -20 0 -23 -5 -23 -39z"/>
<path d="M9798 7870 c-16 -5 -28 -7 -28 -5 0 2 -42 -22 -92 -52 -51 -31 -115
-63 -143 -73 -45 -15 -50 -20 -53 -49 -3 -29 -6 -32 -33 -27 -20 3 -29 0 -29
-10 0 -8 7 -14 16 -14 11 0 14 -6 9 -22 -6 -16 -1 -26 16 -39 19 -14 21 -21
12 -30 -10 -10 -17 -9 -33 6 -19 18 -21 17 -44 -8 -14 -15 -23 -28 -21 -28 3
-1 8 -2 13 -3 4 -1 13 -5 20 -10 16 -9 -2 -36 -24 -36 -19 0 -18 -29 1 -36 8
-4 15 -10 15 -16 0 -12 -69 -40 -85 -34 -8 3 -19 -2 -26 -10 -7 -8 -18 -13
-25 -10 -7 3 -18 -1 -24 -9 -9 -11 -7 -15 14 -21 14 -3 26 -10 26 -15 0 -12
37 -11 61 2 11 5 17 14 14 19 -10 16 37 37 128 60 48 12 99 24 114 26 15 3 30
7 33 9 4 2 22 7 41 10 36 7 183 78 205 100 8 7 17 15 22 17 4 1 23 22 41 44
28 36 32 49 32 97 0 74 -37 150 -82 166 -36 13 -53 13 -91 1z"/>
<path d="M1755 7621 c-11 -4 -37 -15 -58 -26 -51 -26 -88 -100 -82 -167 3 -39
25 -105 41 -127 2 -2 27 -6 56 -8 29 -2 112 -19 183 -38 72 -19 145 -36 164
-39 36 -5 90 16 104 40 19 33 74 4 61 -31 -6 -15 -3 -17 18 -12 17 5 30 2 38
-8 20 -24 36 -2 39 52 1 26 8 51 14 55 7 4 8 8 4 8 -5 0 -2 7 7 15 8 9 19 15
23 14 15 -3 73 14 79 22 3 5 -6 13 -20 19 -14 5 -30 18 -36 29 -17 32 -64 51
-124 51 -30 0 -58 5 -62 11 -11 19 -224 117 -289 134 -61 15 -125 18 -160 6z"/>
<path d="M9273 7562 c-39 -6 -20 -52 30 -71 46 -18 67 23 35 66 -9 11 -18 12
-65 5z"/>
<path d="M9294 7456 c-6 -16 11 -46 27 -46 15 0 10 37 -6 50 -12 10 -16 9 -21
-4z"/>
<path d="M10952 6639 c-26 -10 -24 -9 -177 -42 -91 -20 -196 -41 -360 -71 -56
-11 -203 -48 -227 -57 -16 -6 -28 -17 -28 -25 0 -31 -24 -64 -46 -64 -13 0
-26 5 -29 10 -23 37 -95 -19 -95 -73 0 -59 -25 -79 -108 -85 -52 -3 -72 -8
-72 -19 0 -7 -11 -19 -25 -25 -23 -10 -24 -13 -9 -29 23 -25 109 -42 137 -27
12 6 27 18 32 25 8 11 17 12 38 4 27 -11 335 -8 387 3 14 2 72 12 130 20 167
25 170 26 285 56 112 28 255 86 255 101 0 5 6 9 14 9 17 0 58 49 51 60 -3 5
-8 41 -11 82 -4 40 -13 85 -20 100 -23 44 -75 64 -122 47z"/>
<path d="M1170 5794 c-69 -6 -145 -14 -170 -18 -25 -3 -65 -8 -90 -11 -25 -3
-54 -8 -66 -10 -12 -3 -39 -7 -60 -11 -21 -3 -79 -15 -129 -26 -49 -11 -94
-21 -100 -22 -103 -22 -115 -29 -147 -84 -28 -49 -30 -60 -25 -115 3 -34 10
-63 16 -65 6 -2 8 -8 5 -13 -7 -12 347 -10 451 2 140 17 181 23 260 40 78 17
85 19 85 34 0 16 96 24 138 12 15 -4 58 -8 97 -8 55 1 75 5 95 21 14 11 42 27
63 36 43 19 78 59 70 80 -8 21 -26 17 -47 -11 -24 -32 -32 -31 -51 5 -9 17
-13 30 -11 30 3 0 0 14 -5 32 -7 26 -5 35 10 49 23 22 52 9 32 -14 -16 -20 2
-31 28 -17 15 7 31 7 60 -3 26 -10 45 -11 56 -4 12 6 20 6 25 -3 4 -6 18 -10
31 -7 l24 4 -22 8 c-34 11 -29 35 7 35 25 0 30 4 30 24 0 27 -15 42 -25 26 -9
-14 -25 -12 -25 3 0 10 -23 14 -95 14 -84 1 -95 -1 -100 -18 -8 -23 -6 -23
-80 2 -67 22 -131 23 -335 3z"/>
<path d="M1860 5750 c-23 -23 -19 -40 10 -40 26 0 42 31 24 48 -11 10 -17 9
-34 -8z"/>
<path d="M9385 5264 c-15 -11 -17 -18 -9 -32 14 -22 34 -22 48 0 8 13 7 21 -4
32 -13 13 -17 13 -35 0z"/>
<path d="M9501 5239 c-38 -8 -55 -27 -39 -46 5 -7 7 -21 4 -30 -5 -13 -9 -14
-15 -5 -16 26 -101 -2 -101 -34 0 -7 -7 -20 -16 -29 -24 -23 -12 -38 47 -59
30 -10 61 -24 69 -31 18 -14 52 -29 63 -27 4 1 7 -2 7 -6 0 -5 18 -17 40 -27
22 -10 40 -22 40 -27 0 -4 3 -7 8 -6 4 1 45 -17 92 -39 80 -39 111 -52 135
-59 211 -58 382 21 370 173 -4 55 -27 85 -72 98 -24 7 -43 11 -43 9 0 -2 -18
3 -40 11 -22 8 -41 14 -43 14 -6 -2 -101 26 -195 57 -131 43 -146 45 -171 28
-20 -14 -22 -13 -31 10 -5 14 -13 27 -17 28 -25 4 -62 4 -92 -3z"/>
<path d="M2385 4417 c-22 -17 -12 -37 19 -37 31 0 50 22 34 38 -16 16 -30 15
-53 -1z"/>
<path d="M2095 4364 c-145 -41 -313 -93 -340 -104 -11 -5 -40 -14 -65 -21 -25
-6 -54 -15 -65 -20 -11 -4 -54 -18 -95 -29 -92 -26 -130 -40 -128 -49 1 -3 -9
-28 -22 -55 -30 -67 -30 -180 0 -210 17 -17 141 -16 212 1 35 8 70 16 78 18 8
2 49 15 90 30 78 29 95 37 248 126 124 72 235 128 245 122 4 -2 7 1 7 6 0 6 6
11 13 11 6 0 33 19 59 43 25 23 60 53 77 67 42 34 41 60 -2 60 -18 0 -43 7
-55 16 -41 29 -126 25 -257 -12z"/>
<path d="M8947 4044 c-10 -10 -9 -82 1 -88 19 -11 33 13 30 49 -3 37 -16 53
-31 39z"/>
<path d="M9062 3994 c-17 -18 -3 -47 19 -41 23 6 24 -1 3 -24 -13 -14 -21 -16
-42 -8 -30 11 -92 3 -92 -11 0 -6 -7 -10 -15 -10 -8 0 -15 -3 -15 -7 0 -5 -13
-17 -29 -28 l-29 -19 19 -38 c17 -33 23 -37 54 -36 39 1 70 -21 79 -55 5 -22
109 -97 134 -97 16 0 94 -50 105 -67 9 -14 87 -57 87 -48 0 3 12 -2 26 -12 27
-17 54 -33 138 -80 27 -16 56 -32 65 -38 9 -5 58 -36 108 -67 51 -32 97 -58
102 -58 5 0 11 -3 13 -7 3 -7 94 -55 108 -58 3 0 10 -3 15 -6 56 -34 239 -59
265 -37 9 7 27 29 40 48 13 19 27 37 31 40 4 3 11 28 16 55 8 41 6 53 -6 67
-16 17 -146 98 -157 98 -3 0 -42 19 -87 41 -45 23 -92 47 -104 53 -13 6 -27
22 -33 36 -13 30 -32 44 -104 70 -29 11 -61 29 -71 40 -27 30 -54 26 -61 -10
-9 -45 -21 -36 -28 20 -4 28 -11 51 -16 51 -15 2 -22 5 -53 17 -16 7 -39 12
-52 12 -17 0 -26 7 -30 23 -8 29 -37 49 -107 75 l-58 22 -5 -23 c-7 -25 -103
-68 -135 -60 -33 9 -31 31 6 54 24 14 32 25 25 32 -6 6 -5 17 6 33 l15 23 -44
-4 c-41 -4 -45 -3 -54 23 -12 31 -32 37 -52 16z"/>
<path d="M2980 3356 c0 -25 12 -46 25 -46 21 0 27 17 15 40 -12 23 -40 27 -40
6z"/>
<path d="M8128 3315 c-3 -3 -4 -24 -1 -46 5 -37 4 -39 -21 -39 -18 0 -32 9
-44 28 -9 15 -23 27 -29 26 -7 -1 -20 -2 -28 -3 -8 0 -15 -9 -15 -18 0 -24 32
-105 47 -121 7 -7 13 -17 13 -21 0 -7 45 -53 135 -138 8 -7 17 -13 21 -13 4 0
20 -13 36 -30 15 -16 33 -30 38 -30 6 0 10 -4 10 -10 0 -5 20 -23 45 -40 72
-49 156 -45 219 13 11 9 24 17 29 17 5 0 18 10 28 22 17 19 20 33 21 101 1 34
-12 57 -33 57 -10 0 -19 5 -19 10 0 6 -5 10 -11 10 -9 0 -31 15 -104 73 -5 4
-26 21 -45 38 -60 52 -154 92 -213 92 -34 -1 -55 4 -62 14 -6 8 -13 11 -17 8z"/>
<path d="M2849 3261 c-19 -20 -54 -63 -78 -96 -25 -33 -52 -66 -60 -72 -8 -7
-11 -13 -5 -13 5 0 5 -3 -1 -8 -21 -15 -104 -119 -149 -187 -80 -121 -91 -134
-102 -135 -6 0 -17 -11 -24 -25 -7 -14 -17 -25 -22 -25 -4 0 -8 -7 -8 -15 0
-8 -4 -15 -8 -15 -4 0 -16 -13 -25 -30 -10 -16 -23 -35 -30 -42 -7 -7 -24 -29
-37 -48 -13 -19 -27 -37 -30 -40 -3 -3 -25 -32 -48 -65 -76 -110 -105 -210
-86 -301 6 -29 28 -46 124 -94 57 -29 90 -19 124 35 11 16 23 34 28 40 5 5 60
78 121 160 127 170 187 258 187 274 0 6 5 11 10 11 6 0 10 7 10 15 0 8 5 15
12 15 6 0 8 3 5 7 -4 3 4 25 18 49 31 53 32 67 3 59 -35 -11 -40 -11 -45 2 -2
7 12 17 35 24 32 9 44 20 57 49 10 21 14 43 11 49 -10 16 11 85 34 111 l21 24
15 -22 c18 -26 49 -19 34 8 -12 22 -13 30 -2 29 24 -4 42 3 42 17 0 8 -3 13
-8 10 -21 -13 -66 51 -51 75 15 23 10 37 -10 32 -13 -3 -20 1 -23 14 -5 23 9
51 49 93 29 31 35 66 9 57 -6 -2 -23 -1 -37 3 -22 7 -32 2 -60 -29z"/>
<path d="M2969 3234 c-9 -11 -10 -20 -3 -32 13 -19 51 -23 58 -5 3 7 1 13 -5
13 -6 0 -8 4 -4 9 3 6 -3 15 -14 20 -14 8 -22 7 -32 -5z"/>
<path d="M3056 3115 c-15 -11 -17 -18 -8 -27 13 -13 42 6 42 28 0 18 -10 17
-34 -1z"/>
<path d="M2885 2910 c-9 -14 4 -70 16 -71 36 -5 44 -2 47 18 2 12 -6 31 -17
42 -23 23 -37 26 -46 11z"/>
<path d="M3822 2782 c-33 -9 -57 -23 -64 -36 -6 -12 -37 -57 -68 -102 -62 -87
-125 -194 -114 -194 4 0 1 -6 -5 -14 -22 -26 -22 -118 0 -166 29 -65 91 -117
119 -100 8 5 34 10 57 10 42 0 43 1 73 58 33 63 81 150 112 200 11 17 16 32
13 32 -4 0 -2 6 4 13 26 33 61 167 42 167 -19 0 -41 -12 -36 -20 3 -4 -4 -10
-15 -13 -16 -4 -20 0 -20 18 0 18 -7 25 -30 30 -57 13 -60 45 -9 86 22 17 38
33 36 36 -11 10 -47 9 -95 -5z"/>
<path d="M3895 2726 c-22 -17 -3 -38 36 -39 28 -2 35 2 37 19 2 17 -3 22 -28
26 -17 3 -37 0 -45 -6z"/>
<path d="M7147 2570 c-19 -27 -16 -54 6 -58 11 -2 17 3 17 15 0 11 5 24 10 29
8 8 6 15 -4 23 -11 10 -17 8 -29 -9z"/>
<path d="M7214 2525 c-4 -9 -2 -21 4 -27 15 -15 44 -1 40 19 -4 23 -36 29 -44
8z"/>
<path d="M6064 2492 c-7 -4 -11 -36 -11 -77 1 -38 0 -108 -2 -155 -3 -136 46
-340 98 -402 47 -56 121 -62 210 -17 59 30 61 33 61 71 0 21 -7 74 -16 116
-21 100 -19 94 -44 187 -12 44 -26 97 -31 118 -8 29 -15 37 -33 37 -14 0 -27
9 -34 24 -12 27 -139 106 -169 106 -10 0 -23 -4 -29 -8z"/>
<path d="M7330 2469 c0 -22 34 -59 54 -59 23 0 28 32 8 52 -27 27 -62 32 -62
7z"/>
<path d="M7159 2442 c-9 -50 14 -91 44 -79 19 7 27 54 12 67 -16 13 -55 21
-56 12z"/>
<path d="M7263 2307 c-61 -25 -62 -8 4 -182 25 -66 59 -156 75 -200 39 -104
43 -115 56 -145 6 -14 22 -54 36 -90 24 -63 66 -164 102 -245 9 -22 18 -42 19
-45 0 -3 26 -55 56 -117 34 -70 61 -114 72 -117 26 -7 124 1 183 14 43 9 54
17 72 48 20 37 20 38 2 89 -10 29 -25 65 -33 80 -8 16 -39 75 -69 133 -50 95
-78 177 -91 266 -9 59 -59 154 -82 154 -4 0 -13 6 -20 13 -8 6 -21 18 -30 25
-8 7 -15 26 -15 42 0 17 -8 39 -17 50 -18 21 -43 27 -43 11 0 -5 -9 -13 -20
-16 -27 -9 -145 111 -154 156 -10 50 -7 59 15 59 15 0 19 4 15 16 -3 9 -6 18
-6 20 0 12 -82 -1 -127 -19z"/>
<path d="M4937 2283 c-4 -3 -7 -13 -7 -22 0 -9 -14 -45 -31 -81 -42 -88 -47
-107 -64 -240 -16 -126 -26 -165 -78 -315 -19 -55 -38 -116 -41 -135 -3 -19
-8 -46 -11 -60 -22 -112 -36 -179 -41 -200 -19 -86 7 -187 60 -233 42 -37 106
-54 182 -49 16 2 27 16 45 65 13 34 24 64 24 67 1 3 7 23 13 45 14 50 49 233
57 300 4 28 8 60 10 71 2 12 7 48 10 79 l8 57 -31 -7 c-39 -8 -50 10 -14 24
63 24 119 99 62 84 -25 -7 -25 -2 0 39 16 27 20 51 20 135 l0 103 -32 -7 c-43
-9 -63 18 -43 57 8 15 23 30 35 33 23 6 27 35 5 43 -10 4 -15 20 -15 49 0 30
-6 47 -21 61 -12 10 -23 18 -25 17 -9 -4 -44 10 -44 18 0 10 -24 12 -33 2z"/>
<path d="M7453 2273 c-18 -6 -16 -23 2 -23 8 0 23 -13 33 -29 10 -16 23 -27
28 -23 45 30 -8 93 -63 75z"/>
</g>
</svg>
